<svg width="35" height="36" viewBox="0 0 35 36" fill="none" xmlns="http://www.w3.org/2000/svg">
<rect y="0.797119" width="35" height="35" rx="11.25" fill="#FFAA04" fill-opacity="0.8"/>
<path fill-rule="evenodd" clip-rule="evenodd" d="M19.5705 26.0245C15.3028 27.1681 10.9161 24.6354 9.77258 20.3677C8.62904 16.0999 11.1617 11.7132 15.4294 10.5697C19.6972 9.42617 24.0839 11.9588 25.2274 16.2266L22.8126 16.8736C22.0264 13.9395 19.0105 12.1983 16.0765 12.9845C13.1424 13.7707 11.4012 16.7866 12.1874 19.7206C12.9736 22.6547 15.9894 24.3959 18.9235 23.6097L19.5705 26.0245Z" fill="white"/>
<path fill-rule="evenodd" clip-rule="evenodd" d="M19.5705 26.0245C15.3028 27.1681 10.9161 24.6354 9.77258 20.3677C8.62904 16.0999 11.1617 11.7132 15.4294 10.5697C19.6972 9.42617 24.0839 11.9588 25.2274 16.2266L22.8126 16.8736C22.0264 13.9395 19.0105 12.1983 16.0765 12.9845C13.1424 13.7707 11.4012 16.7866 12.1874 19.7206C12.9736 22.6547 15.9894 24.3959 18.9235 23.6097L19.5705 26.0245Z" fill="#FFAA04" fill-opacity="0.1"/>
</svg>
