<svg width="35" height="36" viewBox="0 0 35 36" fill="none" xmlns="http://www.w3.org/2000/svg">
<rect y="0.797119" width="35" height="35" rx="11.25" fill="#00CD2D" fill-opacity="0.8"/>
<path fill-rule="evenodd" clip-rule="evenodd" d="M15.25 20.5471L24.25 11.5471L26.5 13.7971L17.5 22.7971L15.25 20.5471ZM13 22.7971L15.25 20.5471L10.75 16.0471L8.5 18.2971L13 22.7971Z" fill="white"/>
<path fill-rule="evenodd" clip-rule="evenodd" d="M15.25 20.5471L24.25 11.5471L26.5 13.7971L17.5 22.7971L15.25 20.5471ZM13 22.7971L15.25 20.5471L10.75 16.0471L8.5 18.2971L13 22.7971Z" fill="#00CD2D" fill-opacity="0.1"/>
<path d="M13 22.7971L15.25 25.0471L17.5 22.7971L15.25 20.5471L13 22.7971Z" fill="white"/>
<path d="M13 22.7971L15.25 25.0471L17.5 22.7971L15.25 20.5471L13 22.7971Z" fill="#00CD2D" fill-opacity="0.1"/>
</svg>
